# xmcd
#
# Track frame offsets:
#	150
#	13715
#	24784
#	36605
#	50426
#	62593
#	78262
#	93288
#	109006
#
# Disc length: 1729 seconds
# Revision: 1
# Processed by: cddbd v1.5.2PL0 Copyright (c) Steve Scherf et al.
# Submitted via: dBpowerAMP V12.0
#
DISCID=6406bf09
DTITLE=Bob Log III - Live!!! Aloha from Japan
DYEAR=1900
DGENRE=Blues
TTITLE0=Look at That
TTITLE1=Cold Motor
TTITLE2=Daddy Log's Drive in Candy Hoppin' Car Babes
TTITLE3=All the Rockets Go Bang
TTITLE4=You Wanna What
TTITLE5=Booby Trap
TTITLE6=Clap Your Tits
TTITLE7=I Want Your Shit on My Leg
TTITLE8=String Around a Stick
EXTD=
EXTT0=
EXTT1=
EXTT2=
EXTT3=
EXTT4=
EXTT5=
EXTT6=
EXTT7=
EXTT8=
PLAYORDER=
